G04 Layer_Color=8150272*
%FSLAX44Y44*%
%MOMM*%
G71*
G01*
G75*
%ADD57O,1.8032X2.4032*%
%ADD58R,1.8032X2.4032*%
%ADD59C,1.7032*%
%ADD60O,2.4532X3.2032*%
%ADD61C,3.2032*%
%ADD62C,2.4032*%
%ADD63C,1.6032*%
%ADD64C,1.7272*%
%ADD65C,1.6002*%
%ADD66R,2.2032X2.0032*%
%ADD67O,2.7032X2.0032*%
%ADD68C,2.2032*%
%ADD69C,2.8032*%
%ADD70C,1.4732*%
%ADD71R,1.4532X2.9032*%
%ADD72R,1.7532X2.2032*%
D57*
X468630Y692150D02*
D03*
X443230D02*
D03*
D58*
X417830D02*
D03*
D59*
X341630Y925830D02*
D03*
X401630D02*
D03*
D60*
X381870Y1252220D02*
D03*
X331870D02*
D03*
D61*
X578320D02*
D03*
X528320D02*
D03*
X478320D02*
D03*
D62*
X369570Y975360D02*
D03*
X309570Y995360D02*
D03*
Y1117360D02*
D03*
X429570D02*
D03*
Y995360D02*
D03*
X309810Y321310D02*
D03*
X359810D02*
D03*
X409810D02*
D03*
X459810D02*
D03*
D63*
X358140Y885190D02*
D03*
X307340D02*
D03*
X332740D02*
D03*
D64*
X831850Y608330D02*
D03*
Y582930D02*
D03*
X857250Y608330D02*
D03*
Y582930D02*
D03*
X882650Y608330D02*
D03*
Y582930D02*
D03*
X908050Y608330D02*
D03*
Y582930D02*
D03*
X750570Y331470D02*
D03*
X775970D02*
D03*
X801370D02*
D03*
X826770D02*
D03*
X852170D02*
D03*
X877570D02*
D03*
X902970D02*
D03*
D65*
X471170Y369570D02*
D03*
D66*
X534670Y765810D02*
D03*
D67*
Y740810D02*
D03*
Y715810D02*
D03*
Y690810D02*
D03*
Y665810D02*
D03*
Y640810D02*
D03*
Y615810D02*
D03*
Y590810D02*
D03*
Y565810D02*
D03*
Y540810D02*
D03*
Y515810D02*
D03*
Y490810D02*
D03*
Y465810D02*
D03*
Y440810D02*
D03*
Y415810D02*
D03*
Y390810D02*
D03*
Y365810D02*
D03*
Y340810D02*
D03*
Y315810D02*
D03*
Y290810D02*
D03*
X684670Y765810D02*
D03*
Y740810D02*
D03*
Y715810D02*
D03*
Y690810D02*
D03*
Y665810D02*
D03*
Y640810D02*
D03*
Y615810D02*
D03*
Y590810D02*
D03*
Y565810D02*
D03*
Y540810D02*
D03*
Y515810D02*
D03*
Y490810D02*
D03*
Y465810D02*
D03*
Y440810D02*
D03*
Y415810D02*
D03*
Y390810D02*
D03*
Y365810D02*
D03*
Y340810D02*
D03*
Y315810D02*
D03*
Y290810D02*
D03*
D68*
X471150Y649060D02*
D03*
Y623660D02*
D03*
X278150D02*
D03*
Y649060D02*
D03*
Y514260D02*
D03*
Y539660D02*
D03*
X471150D02*
D03*
Y514260D02*
D03*
X435310Y372980D02*
D03*
X384510D02*
D03*
X359110D02*
D03*
X409910D02*
D03*
X333710D02*
D03*
X308310D02*
D03*
X282910D02*
D03*
D69*
X499040Y898290D02*
D03*
X574040D02*
D03*
X499040Y999090D02*
D03*
X574040D02*
D03*
X499040Y948690D02*
D03*
X574040D02*
D03*
X499040Y1151690D02*
D03*
X574040D02*
D03*
D70*
X713486Y763778D02*
D03*
X811807Y747320D02*
D03*
X814324Y767320D02*
D03*
X622808Y782320D02*
D03*
X503174Y775970D02*
D03*
X739648Y665480D02*
D03*
X739394Y814578D02*
D03*
X350774Y858266D02*
D03*
X767588Y809548D02*
D03*
X764660Y753110D02*
D03*
X372364Y357632D02*
D03*
X723646Y728110D02*
D03*
X432054Y906018D02*
D03*
X489712Y279400D02*
D03*
X634238Y565404D02*
D03*
D71*
X781330Y730250D02*
D03*
X752830D02*
D03*
X782600Y688340D02*
D03*
X754100D02*
D03*
D72*
X630810Y939274D02*
D03*
Y908274D02*
D03*
M02*
