G04 Layer_Color=13813960*
%FSLAX44Y44*%
%MOMM*%
G71*
G01*
G75*
%ADD41C,0.2000*%
%ADD42C,0.2540*%
D41*
X763080Y742750D02*
X771080D01*
X763080Y717750D02*
X771080D01*
X630810Y956524D02*
X645810D01*
Y891024D02*
Y956524D01*
X615809Y891024D02*
X645810D01*
X615809D02*
Y956524D01*
X630810D01*
X764350Y700840D02*
X772350D01*
X764350Y675840D02*
X772350D01*
D42*
X453320Y1212220D02*
X603320D01*
Y1292220D01*
X453320D02*
X603320D01*
X453320Y1212220D02*
Y1292220D01*
X603250D02*
X603320D01*
X603250D02*
Y1315720D01*
X453320D02*
X603250D01*
X453320Y1292220D02*
Y1315720D01*
X284810Y341310D02*
X484810D01*
X284810Y221310D02*
Y341310D01*
X484810Y281310D02*
Y341310D01*
X284810Y281310D02*
X284880D01*
Y221310D02*
Y281310D01*
Y221310D02*
X484810D01*
Y281310D01*
X774700Y647700D02*
Y662935D01*
X767083D01*
X764543Y660396D01*
Y655318D01*
X767083Y652778D01*
X774700D01*
X769622D02*
X764543Y647700D01*
X749308D02*
X759465D01*
X749308Y657857D01*
Y660396D01*
X751847Y662935D01*
X756926D01*
X759465Y660396D01*
X787908Y754126D02*
Y769361D01*
X780291D01*
X777751Y766822D01*
Y761743D01*
X780291Y759204D01*
X787908D01*
X782830D02*
X777751Y754126D01*
X772673Y766822D02*
X770134Y769361D01*
X765055D01*
X762516Y766822D01*
Y764283D01*
X765055Y761743D01*
X767595D01*
X765055D01*
X762516Y759204D01*
Y756665D01*
X765055Y754126D01*
X770134D01*
X772673Y756665D01*
X644144Y965200D02*
Y980435D01*
X636526D01*
X633987Y977896D01*
Y972818D01*
X636526Y970278D01*
X644144D01*
X639066D02*
X633987Y965200D01*
X618752Y980435D02*
X623831Y977896D01*
X628909Y972818D01*
Y967739D01*
X626370Y965200D01*
X621291D01*
X618752Y967739D01*
Y970278D01*
X621291Y972818D01*
X628909D01*
M02*
