G04 Layer_Color=20142*
%FSLAX44Y44*%
%MOMM*%
G71*
G01*
G75*
%ADD46R,1.3532X1.2532*%
%ADD47R,0.9032X1.1532*%
%ADD48R,1.7532X1.7532*%
%ADD49R,1.7532X1.6532*%
%ADD50R,2.2032X1.2032*%
%ADD51R,1.2032X2.2032*%
%ADD52R,1.5532X1.2032*%
%ADD53R,1.2032X1.5532*%
%ADD54R,1.6032X2.3032*%
%ADD55R,9.5032X10.6032*%
%ADD56R,4.0032X1.2032*%
%ADD57O,1.8032X2.4032*%
%ADD58R,1.8032X2.4032*%
%ADD59C,1.7032*%
%ADD60O,2.4532X3.2032*%
%ADD61C,3.2032*%
%ADD62C,2.4032*%
%ADD63C,1.6032*%
%ADD64C,1.7272*%
%ADD65C,1.6002*%
%ADD66R,2.2032X2.0032*%
%ADD67O,2.7032X2.0032*%
%ADD68C,2.2032*%
%ADD69C,2.8032*%
%ADD70C,1.4732*%
D46*
X384180Y871220D02*
D03*
X400680D02*
D03*
D47*
X398160Y895350D02*
D03*
X384160D02*
D03*
D48*
X453390Y808080D02*
D03*
Y789580D02*
D03*
D49*
Y741070D02*
D03*
Y760070D02*
D03*
D50*
X793680Y747320D02*
D03*
Y767320D02*
D03*
Y787320D02*
D03*
Y807320D02*
D03*
Y827320D02*
D03*
Y847320D02*
D03*
Y867320D02*
D03*
Y887320D02*
D03*
X943680D02*
D03*
Y867320D02*
D03*
Y847320D02*
D03*
Y827320D02*
D03*
Y807320D02*
D03*
Y787320D02*
D03*
Y767320D02*
D03*
Y747320D02*
D03*
D51*
X818680Y900320D02*
D03*
X838680D02*
D03*
X858680D02*
D03*
X878680D02*
D03*
X898680D02*
D03*
X918680D02*
D03*
D52*
X759460Y868800D02*
D03*
Y883800D02*
D03*
D53*
X766960Y849630D02*
D03*
X751960D02*
D03*
X766960Y826770D02*
D03*
X751960D02*
D03*
X774580Y687070D02*
D03*
X759580D02*
D03*
X774580Y712470D02*
D03*
X759580D02*
D03*
D54*
X674899Y841444D02*
D03*
Y932444D02*
D03*
X629900Y841444D02*
D03*
Y932444D02*
D03*
D55*
X309940Y773430D02*
D03*
D56*
X408440Y798830D02*
D03*
Y748030D02*
D03*
D57*
X468630Y692150D02*
D03*
X443230D02*
D03*
D58*
X417830D02*
D03*
D59*
X341630Y925830D02*
D03*
X401630D02*
D03*
D60*
X381870Y1252220D02*
D03*
X331870D02*
D03*
D61*
X578320D02*
D03*
X528320D02*
D03*
X478320D02*
D03*
D62*
X369570Y975360D02*
D03*
X309570Y995360D02*
D03*
Y1117360D02*
D03*
X429570D02*
D03*
Y995360D02*
D03*
X309810Y321310D02*
D03*
X359810D02*
D03*
X409810D02*
D03*
X459810D02*
D03*
D63*
X358140Y885190D02*
D03*
X307340D02*
D03*
X332740D02*
D03*
D64*
X831850Y608330D02*
D03*
Y582930D02*
D03*
X857250Y608330D02*
D03*
Y582930D02*
D03*
X882650Y608330D02*
D03*
Y582930D02*
D03*
X908050Y608330D02*
D03*
Y582930D02*
D03*
X750570Y331470D02*
D03*
X775970D02*
D03*
X801370D02*
D03*
X826770D02*
D03*
X852170D02*
D03*
X877570D02*
D03*
X902970D02*
D03*
D65*
X471170Y369570D02*
D03*
D66*
X534670Y765810D02*
D03*
D67*
Y740810D02*
D03*
Y715810D02*
D03*
Y690810D02*
D03*
Y665810D02*
D03*
Y640810D02*
D03*
Y615810D02*
D03*
Y590810D02*
D03*
Y565810D02*
D03*
Y540810D02*
D03*
Y515810D02*
D03*
Y490810D02*
D03*
Y465810D02*
D03*
Y440810D02*
D03*
Y415810D02*
D03*
Y390810D02*
D03*
Y365810D02*
D03*
Y340810D02*
D03*
Y315810D02*
D03*
Y290810D02*
D03*
X684670Y765810D02*
D03*
Y740810D02*
D03*
Y715810D02*
D03*
Y690810D02*
D03*
Y665810D02*
D03*
Y640810D02*
D03*
Y615810D02*
D03*
Y590810D02*
D03*
Y565810D02*
D03*
Y540810D02*
D03*
Y515810D02*
D03*
Y490810D02*
D03*
Y465810D02*
D03*
Y440810D02*
D03*
Y415810D02*
D03*
Y390810D02*
D03*
Y365810D02*
D03*
Y340810D02*
D03*
Y315810D02*
D03*
Y290810D02*
D03*
D68*
X471150Y649060D02*
D03*
Y623660D02*
D03*
X278150D02*
D03*
Y649060D02*
D03*
Y514260D02*
D03*
Y539660D02*
D03*
X471150D02*
D03*
Y514260D02*
D03*
X435310Y372980D02*
D03*
X384510D02*
D03*
X359110D02*
D03*
X409910D02*
D03*
X333710D02*
D03*
X308310D02*
D03*
X282910D02*
D03*
D69*
X499040Y898290D02*
D03*
X574040D02*
D03*
X499040Y999090D02*
D03*
X574040D02*
D03*
X499040Y948690D02*
D03*
X574040D02*
D03*
X499040Y1151690D02*
D03*
X574040D02*
D03*
D70*
X713486Y763778D02*
D03*
X811807Y747320D02*
D03*
X814324Y767320D02*
D03*
X622808Y782320D02*
D03*
X503174Y775970D02*
D03*
X739648Y665480D02*
D03*
X739394Y814578D02*
D03*
X350774Y858266D02*
D03*
X767588Y809548D02*
D03*
X764660Y753110D02*
D03*
X372364Y357632D02*
D03*
X723646Y728110D02*
D03*
X432054Y906018D02*
D03*
X489712Y279400D02*
D03*
X634238Y565404D02*
D03*
M02*
