G04 Layer_Physical_Order=2*
G04 Layer_Color=11436288*
%FSLAX44Y44*%
%MOMM*%
G71*
G01*
G75*
%ADD21C,0.5000*%
%ADD23C,2.0000*%
%ADD24O,1.6000X2.2000*%
%ADD25R,1.6000X2.2000*%
%ADD26C,1.5000*%
%ADD27O,2.2500X3.0000*%
%ADD28C,3.0000*%
%ADD29C,2.2000*%
%ADD30C,1.4000*%
%ADD31C,1.5240*%
%ADD32C,1.3970*%
%ADD33R,2.0000X1.8000*%
%ADD34O,2.5000X1.8000*%
%ADD35C,2.0000*%
%ADD36C,2.6000*%
%ADD37C,1.2700*%
%ADD38R,1.2500X2.7000*%
%ADD39R,1.5500X2.0000*%
D21*
X713486Y763778D02*
X721435Y771727D01*
X787400D01*
X811807Y747320D01*
X799324Y782320D02*
X814324Y767320D01*
X622808Y782320D02*
X799324D01*
X574040Y898290D02*
X597408D01*
X607392Y908274D01*
X630810D01*
X503174Y758336D02*
Y775970D01*
Y758336D02*
X520700Y740810D01*
X534670D01*
X684670Y615810D02*
X711200D01*
X739648Y644258D01*
Y665480D01*
X381000Y814578D02*
X739394D01*
X350774Y844804D02*
X381000Y814578D01*
X350774Y844804D02*
Y858266D01*
X278150Y649060D02*
Y768463D01*
X304800Y795114D01*
X556114D01*
X585418Y765810D01*
X684670D01*
X531114Y340810D02*
X534670D01*
X467614Y349250D02*
X531114D01*
X448564Y368300D02*
X467614Y349250D01*
X448564Y368300D02*
Y372980D01*
X435310D02*
X448564D01*
X651306Y925830D02*
X767588Y809548D01*
X630810Y925830D02*
X651306D01*
X630810D02*
Y939274D01*
X781330Y730250D02*
Y745758D01*
X774700Y752388D02*
X781330Y745758D01*
X702096Y752388D02*
Y765810D01*
X782600Y688340D02*
Y708660D01*
X781330Y709930D02*
X782600Y708660D01*
X781330Y709930D02*
Y730250D01*
X782600Y597636D02*
Y688340D01*
Y597636D02*
X812800Y567436D01*
X901700D01*
X908050Y573786D01*
Y582930D01*
X725599Y753110D02*
X764660D01*
X724876Y752388D02*
X725599Y753110D01*
X702096Y752388D02*
X724876D01*
X684670Y765810D02*
X702096D01*
X372364Y357632D02*
X392350D01*
X410130Y339852D01*
X482600D01*
X514604Y307848D01*
Y274066D02*
Y307848D01*
Y274066D02*
X635000D01*
X664464Y303530D01*
Y415810D01*
X684670D01*
Y440810D02*
X698500D01*
X704850Y434460D01*
Y279400D02*
Y434460D01*
X690880Y265430D02*
X704850Y279400D01*
X506984Y265430D02*
X690880D01*
X506984D02*
Y279400D01*
X490728Y295656D02*
X506984Y279400D01*
X406400Y295656D02*
X490728D01*
X384810Y317246D02*
X406400Y295656D01*
X384810Y317246D02*
Y323300D01*
X368300Y339810D02*
X384810Y323300D01*
X359110Y339810D02*
X368300D01*
X359110D02*
Y372980D01*
X471170Y369570D02*
X500888D01*
X504648Y365810D01*
X534670D01*
X282910Y355600D02*
Y372980D01*
Y355600D02*
X298658Y339852D01*
X338548D01*
X353433Y324966D01*
X359810Y321310D02*
Y324966D01*
X684670Y690810D02*
X697990D01*
X723900Y716719D01*
X752830D02*
Y730250D01*
Y709422D02*
X768604D01*
Y583438D02*
Y709422D01*
Y583438D02*
X801370Y550672D01*
Y331470D02*
Y550672D01*
X684670Y665810D02*
X707898D01*
X730428Y688340D01*
X754100D01*
X775970Y331470D02*
Y498856D01*
X754100Y520726D02*
X775970Y498856D01*
X754100Y520726D02*
Y688340D01*
X333710Y372980D02*
Y390652D01*
X409910D01*
Y372980D02*
Y390652D01*
X684670Y740810D02*
X723646D01*
X736346Y728110D01*
X723646D02*
X736346D01*
X863600Y960374D02*
X908050Y915924D01*
Y608330D02*
Y915924D01*
X432054Y906018D02*
Y939800D01*
X466090Y973836D01*
X565404D01*
X574040Y965200D01*
X684670Y540810D02*
X702520D01*
X735330Y508000D01*
Y321818D02*
Y508000D01*
Y321818D02*
X749300Y307848D01*
X838200D01*
X852170Y321818D01*
Y331470D01*
X902970Y296164D02*
Y331470D01*
X863600Y256794D02*
X902970Y296164D01*
X496824Y256794D02*
X863600D01*
X496824D02*
Y266700D01*
X489712Y273812D02*
X496824Y266700D01*
X489712Y273812D02*
Y279400D01*
X882650Y608330D02*
Y762000D01*
X854549Y790100D02*
X882650Y762000D01*
X743597Y790100D02*
X854549D01*
X731044Y802654D02*
X743597Y790100D01*
X301258Y802654D02*
X731044D01*
X260604Y762000D02*
X301258Y802654D01*
X260604Y482600D02*
Y762000D01*
Y482600D02*
X277394Y465810D01*
X534670D01*
Y490810D02*
X591648D01*
X634238Y533400D01*
Y565404D01*
X618302Y715810D02*
X684670D01*
X546538Y787573D02*
X618302Y715810D01*
X494203Y787573D02*
X546538D01*
X468630Y762000D02*
X494203Y787573D01*
X468630Y692150D02*
Y762000D01*
X531114Y340810D02*
Y349250D01*
X724876Y752388D02*
X774700D01*
X353433Y324966D02*
X359810D01*
X723900Y716719D02*
X752830D01*
Y709422D02*
Y716719D01*
X574040Y948690D02*
Y960374D01*
Y965200D01*
Y960374D02*
X863600D01*
D23*
X528320Y1229614D02*
Y1252220D01*
X520700Y1221994D02*
X528320Y1229614D01*
X391776Y1221994D02*
X520700D01*
X381870Y1231900D02*
X391776Y1221994D01*
X381870Y1231900D02*
Y1252220D01*
D24*
X468630Y692150D02*
D03*
X443230D02*
D03*
D25*
X417830D02*
D03*
D26*
X341630Y925830D02*
D03*
X401630D02*
D03*
D27*
X381870Y1252220D02*
D03*
X331870D02*
D03*
D28*
X578320D02*
D03*
X528320D02*
D03*
X478320D02*
D03*
D29*
X369570Y975360D02*
D03*
X309570Y995360D02*
D03*
Y1117360D02*
D03*
X429570D02*
D03*
Y995360D02*
D03*
X309810Y321310D02*
D03*
X359810D02*
D03*
X409810D02*
D03*
X459810D02*
D03*
D30*
X358140Y885190D02*
D03*
X307340D02*
D03*
X332740D02*
D03*
D31*
X831850Y608330D02*
D03*
Y582930D02*
D03*
X857250Y608330D02*
D03*
Y582930D02*
D03*
X882650Y608330D02*
D03*
Y582930D02*
D03*
X908050Y608330D02*
D03*
Y582930D02*
D03*
X750570Y331470D02*
D03*
X775970D02*
D03*
X801370D02*
D03*
X826770D02*
D03*
X852170D02*
D03*
X877570D02*
D03*
X902970D02*
D03*
D32*
X471170Y369570D02*
D03*
D33*
X534670Y765810D02*
D03*
D34*
Y740810D02*
D03*
Y715810D02*
D03*
Y690810D02*
D03*
Y665810D02*
D03*
Y640810D02*
D03*
Y615810D02*
D03*
Y590810D02*
D03*
Y565810D02*
D03*
Y540810D02*
D03*
Y515810D02*
D03*
Y490810D02*
D03*
Y465810D02*
D03*
Y440810D02*
D03*
Y415810D02*
D03*
Y390810D02*
D03*
Y365810D02*
D03*
Y340810D02*
D03*
Y315810D02*
D03*
Y290810D02*
D03*
X684670Y765810D02*
D03*
Y740810D02*
D03*
Y715810D02*
D03*
Y690810D02*
D03*
Y665810D02*
D03*
Y640810D02*
D03*
Y615810D02*
D03*
Y590810D02*
D03*
Y565810D02*
D03*
Y540810D02*
D03*
Y515810D02*
D03*
Y490810D02*
D03*
Y465810D02*
D03*
Y440810D02*
D03*
Y415810D02*
D03*
Y390810D02*
D03*
Y365810D02*
D03*
Y340810D02*
D03*
Y315810D02*
D03*
Y290810D02*
D03*
D35*
X471150Y649060D02*
D03*
Y623660D02*
D03*
X278150D02*
D03*
Y649060D02*
D03*
Y514260D02*
D03*
Y539660D02*
D03*
X471150D02*
D03*
Y514260D02*
D03*
X435310Y372980D02*
D03*
X384510D02*
D03*
X359110D02*
D03*
X409910D02*
D03*
X333710D02*
D03*
X308310D02*
D03*
X282910D02*
D03*
D36*
X499040Y898290D02*
D03*
X574040D02*
D03*
X499040Y999090D02*
D03*
X574040D02*
D03*
X499040Y948690D02*
D03*
X574040D02*
D03*
X499040Y1151690D02*
D03*
X574040D02*
D03*
D37*
X713486Y763778D02*
D03*
X811807Y747320D02*
D03*
X814324Y767320D02*
D03*
X622808Y782320D02*
D03*
X503174Y775970D02*
D03*
X739648Y665480D02*
D03*
X739394Y814578D02*
D03*
X350774Y858266D02*
D03*
X767588Y809548D02*
D03*
X764660Y753110D02*
D03*
X372364Y357632D02*
D03*
X723646Y728110D02*
D03*
X432054Y906018D02*
D03*
X489712Y279400D02*
D03*
X634238Y565404D02*
D03*
D38*
X781330Y730250D02*
D03*
X752830D02*
D03*
X782600Y688340D02*
D03*
X754100D02*
D03*
D39*
X630810Y939274D02*
D03*
Y908274D02*
D03*
M02*
