G04 Layer_Color=15132400*
%FSLAX44Y44*%
%MOMM*%
G71*
G01*
G75*
%ADD40C,0.2500*%
%ADD41C,0.2000*%
%ADD42C,0.2540*%
%ADD43C,0.2030*%
%ADD44C,0.3048*%
%ADD45C,0.2900*%
D40*
X364020Y898900D02*
G03*
X364020Y898900I-1250J0D01*
G01*
X409690Y737530D02*
G03*
X409690Y737530I-1250J0D01*
G01*
D41*
X308595Y874269D02*
G03*
X356885Y874269I24145J10920D01*
G01*
Y896111D02*
G03*
X354448Y900390I-24145J-10920D01*
G01*
X311033D02*
G03*
X308595Y896111I21707J-15200D01*
G01*
X311033Y900390D02*
X354447D01*
X494030Y795810D02*
X724030D01*
X724670Y261620D02*
Y794160D01*
X494030Y260810D02*
X723900D01*
X494030Y261620D02*
Y795020D01*
X788680Y902320D02*
X868680Y902320D01*
X788680Y782320D02*
Y902320D01*
Y662320D02*
X868680D01*
X788680D02*
Y782320D01*
X868680Y662320D02*
X948680D01*
Y782320D01*
Y902320D01*
X868680D02*
X948680D01*
X612400Y821944D02*
X692399D01*
X612400D02*
Y951944D01*
X692399D01*
Y821944D02*
Y951944D01*
X374940Y721430D02*
Y825430D01*
X360440D02*
X374940D01*
X360440Y721430D02*
X374940D01*
D42*
X289810Y211310D02*
G03*
X289810Y211310I-5000J0D01*
G01*
X356630Y915830D02*
Y935830D01*
X386630D01*
Y915830D02*
Y935830D01*
X356630Y915830D02*
X386630D01*
X376630Y930830D02*
X381630Y925830D01*
X376630Y920830D02*
Y930830D01*
Y920830D02*
X381630Y925830D01*
X379570Y949860D02*
X447570D01*
Y1174860D01*
X293570Y949860D02*
Y1174860D01*
Y949860D02*
X361570D01*
X293570Y1174860D02*
X447570D01*
X819150Y621030D02*
X920750D01*
Y570230D02*
Y621030D01*
X819150Y570230D02*
X920750D01*
X819150D02*
Y621030D01*
X915670Y318770D02*
Y344170D01*
X737870Y318770D02*
X915670D01*
X737870D02*
Y344170D01*
X915670D01*
X486150Y496660D02*
Y666660D01*
X263150Y496660D02*
X486150D01*
X263150D02*
Y666660D01*
X486150D01*
X269310Y357980D02*
Y474980D01*
Y357980D02*
X448310D01*
X269310Y474980D02*
X448310D01*
Y357980D02*
Y474980D01*
X416811Y729991D02*
X411732D01*
X414272D01*
Y717295D01*
X411732Y714756D01*
X409193D01*
X406654Y717295D01*
X421889Y714756D02*
X426967D01*
X424428D01*
Y729991D01*
X421889Y727452D01*
X380238Y910844D02*
Y926079D01*
X387855D01*
X390395Y923540D01*
Y918462D01*
X387855Y915922D01*
X380238D01*
X385316D02*
X390395Y910844D01*
X395473D02*
X400551D01*
X398012D01*
Y926079D01*
X395473Y923540D01*
X408169Y910844D02*
X413247D01*
X410708D01*
Y926079D01*
X408169Y923540D01*
X311909Y911605D02*
Y921762D01*
X309370Y924301D01*
X304291D01*
X301752Y921762D01*
Y911605D01*
X304291Y909066D01*
X309370D01*
X306830Y914144D02*
X311909Y909066D01*
X309370D02*
X311909Y911605D01*
X316987Y909066D02*
X322065D01*
X319526D01*
Y924301D01*
X316987Y921762D01*
X294894Y1198875D02*
Y1183640D01*
Y1188718D01*
X305051Y1198875D01*
X297433Y1191257D01*
X305051Y1183640D01*
X310129D02*
X315207D01*
X312668D01*
Y1198875D01*
X310129Y1196336D01*
X306070Y941065D02*
Y925830D01*
X313687D01*
X316227Y928369D01*
Y938526D01*
X313687Y941065D01*
X306070D01*
X321305Y925830D02*
X326383D01*
X323844D01*
Y941065D01*
X321305Y938526D01*
X788670Y657855D02*
Y645159D01*
X791209Y642620D01*
X796288D01*
X798827Y645159D01*
Y657855D01*
X814062D02*
X803905D01*
Y650238D01*
X808983Y652777D01*
X811523D01*
X814062Y650238D01*
Y645159D01*
X811523Y642620D01*
X806444D01*
X803905Y645159D01*
X749297Y368295D02*
X744218D01*
X746758D01*
Y355599D01*
X744218Y353060D01*
X741679D01*
X739140Y355599D01*
X754375Y365756D02*
X756914Y368295D01*
X761993D01*
X764532Y365756D01*
Y363217D01*
X761993Y360677D01*
X759453D01*
X761993D01*
X764532Y358138D01*
Y355599D01*
X761993Y353060D01*
X756914D01*
X754375Y355599D01*
X452879Y841498D02*
X450340Y844037D01*
X445261D01*
X442722Y841498D01*
Y831341D01*
X445261Y828802D01*
X450340D01*
X452879Y831341D01*
X457957Y841498D02*
X460496Y844037D01*
X465575D01*
X468114Y841498D01*
Y838959D01*
X465575Y836420D01*
X463035D01*
X465575D01*
X468114Y833880D01*
Y831341D01*
X465575Y828802D01*
X460496D01*
X457957Y831341D01*
X452959Y792666D02*
X450420Y795206D01*
X445341D01*
X442802Y792666D01*
Y782510D01*
X445341Y779970D01*
X450420D01*
X452959Y782510D01*
X468194Y779970D02*
X458037D01*
X468194Y790127D01*
Y792666D01*
X465655Y795206D01*
X460577D01*
X458037Y792666D01*
X563885Y822960D02*
X579120D01*
Y830577D01*
X576581Y833117D01*
X574042D01*
X571502Y830577D01*
Y822960D01*
Y830577D01*
X568963Y833117D01*
X566424D01*
X563885Y830577D01*
Y822960D01*
Y838195D02*
Y848352D01*
Y843273D01*
X579120D01*
Y853430D02*
X563885D01*
X579120Y863587D01*
X563885D01*
X579120Y868665D02*
Y873744D01*
Y871204D01*
X563885D01*
X566424Y868665D01*
X462153Y404236D02*
X472310D01*
X467231D01*
Y389001D01*
X477388D02*
Y404236D01*
X485006D01*
X487545Y401697D01*
Y396618D01*
X485006Y394079D01*
X477388D01*
X492623Y389001D02*
X497701D01*
X495162D01*
Y404236D01*
X492623Y401697D01*
X270510Y499105D02*
Y486409D01*
X273049Y483870D01*
X278127D01*
X280667Y486409D01*
Y499105D01*
X285745Y496566D02*
X288284Y499105D01*
X293363D01*
X295902Y496566D01*
Y494027D01*
X293363Y491488D01*
X290823D01*
X293363D01*
X295902Y488948D01*
Y486409D01*
X293363Y483870D01*
X288284D01*
X285745Y486409D01*
X374647Y1196336D02*
X372108Y1198875D01*
X367029D01*
X364490Y1196336D01*
Y1186179D01*
X367029Y1183640D01*
X372108D01*
X374647Y1186179D01*
X387343Y1198875D02*
X382264D01*
X379725Y1196336D01*
Y1186179D01*
X382264Y1183640D01*
X387343D01*
X389882Y1186179D01*
Y1196336D01*
X387343Y1198875D01*
X394960Y1183640D02*
Y1198875D01*
X405117Y1183640D01*
Y1198875D01*
X410195Y1183640D02*
X415274D01*
X412734D01*
Y1198875D01*
X410195Y1196336D01*
X273050Y257810D02*
X257815D01*
Y265427D01*
X260354Y267967D01*
X265432D01*
X267972Y265427D01*
Y257810D01*
Y262888D02*
X273050Y267967D01*
X260354Y283202D02*
X257815Y280663D01*
Y275584D01*
X260354Y273045D01*
X262893D01*
X265432Y275584D01*
Y280663D01*
X267972Y283202D01*
X270511D01*
X273050Y280663D01*
Y275584D01*
X270511Y273045D01*
X273050Y295898D02*
X257815D01*
X265432Y288280D01*
Y298437D01*
X260354Y303515D02*
X257815Y306054D01*
Y311133D01*
X260354Y313672D01*
X262893D01*
X265432Y311133D01*
X267972Y313672D01*
X270511D01*
X273050Y311133D01*
Y306054D01*
X270511Y303515D01*
X267972D01*
X265432Y306054D01*
X262893Y303515D01*
X260354D01*
X265432Y306054D02*
Y311133D01*
X257815Y328907D02*
Y318750D01*
X265432D01*
X262893Y323829D01*
Y326368D01*
X265432Y328907D01*
X270511D01*
X273050Y326368D01*
Y321289D01*
X270511Y318750D01*
X273050Y359377D02*
Y349220D01*
X262893Y359377D01*
X260354D01*
X257815Y356838D01*
Y351760D01*
X260354Y349220D01*
X273050Y372073D02*
X257815D01*
X265432Y364455D01*
Y374612D01*
X257815Y379691D02*
X267972D01*
X273050Y384769D01*
X267972Y389847D01*
X257815D01*
X291335Y362962D02*
X288796Y365501D01*
X283717D01*
X281178Y362962D01*
Y352805D01*
X283717Y350266D01*
X288796D01*
X291335Y352805D01*
X304031Y365501D02*
X298952D01*
X296413Y362962D01*
Y352805D01*
X298952Y350266D01*
X304031D01*
X306570Y352805D01*
Y362962D01*
X304031Y365501D01*
X311648Y350266D02*
Y365501D01*
X321805Y350266D01*
Y365501D01*
X326883Y350266D02*
Y365501D01*
X337040Y350266D01*
Y365501D01*
X342118Y350266D02*
X347197D01*
X344658D01*
Y365501D01*
X342118Y362962D01*
X416560Y910590D02*
X431795D01*
Y902972D01*
X429256Y900433D01*
X424178D01*
X421638Y902972D01*
Y910590D01*
Y905512D02*
X416560Y900433D01*
Y895355D02*
Y890277D01*
Y892816D01*
X431795D01*
X429256Y895355D01*
X264414Y690875D02*
Y678179D01*
X266953Y675640D01*
X272031D01*
X274571Y678179D01*
Y690875D01*
X279649Y675640D02*
X284727D01*
X282188D01*
Y690875D01*
X279649Y688336D01*
X457962Y857245D02*
Y844549D01*
X460501Y842010D01*
X465579D01*
X468119Y844549D01*
Y857245D01*
X483354Y842010D02*
X473197D01*
X483354Y852167D01*
Y854706D01*
X480815Y857245D01*
X475736D01*
X473197Y854706D01*
X532127Y1201416D02*
X529588Y1203955D01*
X524509D01*
X521970Y1201416D01*
Y1191259D01*
X524509Y1188720D01*
X529588D01*
X532127Y1191259D01*
X544823Y1203955D02*
X539744D01*
X537205Y1201416D01*
Y1191259D01*
X539744Y1188720D01*
X544823D01*
X547362Y1191259D01*
Y1201416D01*
X544823Y1203955D01*
X552440Y1188720D02*
Y1203955D01*
X562597Y1188720D01*
Y1203955D01*
X567675Y1188720D02*
Y1203955D01*
X577832Y1188720D01*
Y1203955D01*
X593067Y1188720D02*
X582910D01*
X593067Y1198877D01*
Y1201416D01*
X590528Y1203955D01*
X585449D01*
X582910Y1201416D01*
X472948Y1184148D02*
Y1199383D01*
X480565D01*
X483105Y1196844D01*
Y1191766D01*
X480565Y1189226D01*
X472948D01*
X478026D02*
X483105Y1184148D01*
X498340Y1199383D02*
X488183D01*
Y1191766D01*
X493261Y1194305D01*
X495801D01*
X498340Y1191766D01*
Y1186687D01*
X495801Y1184148D01*
X490722D01*
X488183Y1186687D01*
X952119Y638434D02*
Y651130D01*
X949580Y653669D01*
X944501D01*
X941962Y651130D01*
Y638434D01*
X936884D02*
X926727D01*
Y640973D01*
X936884Y651130D01*
Y653669D01*
X723900Y679450D02*
Y694685D01*
X731517D01*
X734057Y692146D01*
Y687067D01*
X731517Y684528D01*
X723900D01*
X728978D02*
X734057Y679450D01*
X746753D02*
Y694685D01*
X739135Y687067D01*
X749292D01*
X721360Y703580D02*
Y718815D01*
X728978D01*
X731517Y716276D01*
Y711198D01*
X728978Y708658D01*
X721360D01*
X726438D02*
X731517Y703580D01*
X736595Y718815D02*
X746752D01*
Y716276D01*
X736595Y706119D01*
Y703580D01*
X716280Y816610D02*
Y831845D01*
X723897D01*
X726437Y829306D01*
Y824228D01*
X723897Y821688D01*
X716280D01*
X721358D02*
X726437Y816610D01*
X731515Y829306D02*
X734054Y831845D01*
X739133D01*
X741672Y829306D01*
Y826767D01*
X739133Y824228D01*
X741672Y821688D01*
Y819149D01*
X739133Y816610D01*
X734054D01*
X731515Y819149D01*
Y821688D01*
X734054Y824228D01*
X731515Y826767D01*
Y829306D01*
X734054Y824228D02*
X739133D01*
X715010Y838200D02*
Y853435D01*
X722627D01*
X725167Y850896D01*
Y845817D01*
X722627Y843278D01*
X715010D01*
X720088D02*
X725167Y838200D01*
X730245Y840739D02*
X732784Y838200D01*
X737863D01*
X740402Y840739D01*
Y850896D01*
X737863Y853435D01*
X732784D01*
X730245Y850896D01*
Y848357D01*
X732784Y845817D01*
X740402D01*
X745490Y883920D02*
Y868685D01*
X737872D01*
X735333Y871224D01*
Y876302D01*
X737872Y878842D01*
X745490D01*
X740412D02*
X735333Y883920D01*
X730255D02*
X725177D01*
X727716D01*
Y868685D01*
X730255Y871224D01*
X717559D02*
X715020Y868685D01*
X709941D01*
X707402Y871224D01*
Y881381D01*
X709941Y883920D01*
X715020D01*
X717559Y881381D01*
Y871224D01*
X263144Y851149D02*
Y838453D01*
X265683Y835914D01*
X270762D01*
X273301Y838453D01*
Y851149D01*
X285997Y835914D02*
Y851149D01*
X278379Y843531D01*
X288536D01*
X591820Y288285D02*
Y275589D01*
X594359Y273050D01*
X599437D01*
X601977Y275589D01*
Y288285D01*
X617212Y285746D02*
X614673Y288285D01*
X609594D01*
X607055Y285746D01*
Y283207D01*
X609594Y280667D01*
X614673D01*
X617212Y278128D01*
Y275589D01*
X614673Y273050D01*
X609594D01*
X607055Y275589D01*
X622290Y288285D02*
Y273050D01*
X629908D01*
X632447Y275589D01*
Y278128D01*
X629908Y280667D01*
X622290D01*
X629908D01*
X632447Y283207D01*
Y285746D01*
X629908Y288285D01*
X622290D01*
X580389Y723900D02*
X585467D01*
X588007Y726439D01*
Y731517D01*
X585467Y734057D01*
X580389D01*
X577850Y731517D01*
Y726439D01*
X580389Y723900D01*
X595624D02*
X600703D01*
X603242Y726439D01*
Y731517D01*
X600703Y734057D01*
X595624D01*
X593085Y731517D01*
Y726439D01*
X595624Y723900D01*
X610859D02*
X615938D01*
X618477Y726439D01*
Y731517D01*
X615938Y734057D01*
X610859D01*
X608320Y731517D01*
Y726439D01*
X610859Y723900D01*
X626094D02*
X631173D01*
X633712Y726439D01*
Y731517D01*
X631173Y734057D01*
X626094D01*
X623555Y731517D01*
Y726439D01*
X626094Y723900D01*
X596897Y761996D02*
X594357Y764535D01*
X589279D01*
X586740Y761996D01*
Y759457D01*
X589279Y756917D01*
X594357D01*
X596897Y754378D01*
Y751839D01*
X594357Y749300D01*
X589279D01*
X586740Y751839D01*
X601975Y764535D02*
Y749300D01*
X607053Y754378D01*
X612132Y749300D01*
Y764535D01*
X617210D02*
Y749300D01*
X624828D01*
X627367Y751839D01*
Y761996D01*
X624828Y764535D01*
X617210D01*
X442943Y517914D02*
X445482Y515375D01*
X450561D01*
X453100Y517914D01*
Y528071D01*
X450561Y530610D01*
X445482D01*
X442943Y528071D01*
Y522993D01*
X448022D01*
X437865Y530610D02*
Y515375D01*
X427708Y530610D01*
Y515375D01*
X422630D02*
Y530610D01*
X415012D01*
X412473Y528071D01*
Y517914D01*
X415012Y515375D01*
X422630D01*
X336093Y519514D02*
X338633Y516975D01*
X343711D01*
X346250Y519514D01*
Y529671D01*
X343711Y532210D01*
X338633D01*
X336093Y529671D01*
Y524593D01*
X341172D01*
X331015Y532210D02*
Y516975D01*
X320858Y532210D01*
Y516975D01*
X315780D02*
Y532210D01*
X308162D01*
X305623Y529671D01*
Y519514D01*
X308162Y516975D01*
X315780D01*
X453900Y625425D02*
X448822D01*
X451361D01*
Y640660D01*
X453900D01*
X448822D01*
X441204D02*
Y625425D01*
X431047Y640660D01*
Y625425D01*
X338232Y625825D02*
X343311D01*
X345850Y628364D01*
Y638521D01*
X343311Y641060D01*
X338232D01*
X335693Y638521D01*
Y628364D01*
X338232Y625825D01*
X330615D02*
Y638521D01*
X328076Y641060D01*
X322997D01*
X320458Y638521D01*
Y625825D01*
X315380D02*
X305223D01*
X310301D01*
Y641060D01*
X438467Y430980D02*
X428310Y425902D01*
X438467Y420823D01*
Y405588D02*
Y413206D01*
X435928Y415745D01*
X430849D01*
X428310Y413206D01*
Y405588D01*
X438467Y390353D02*
Y397971D01*
X435928Y400510D01*
X430849D01*
X428310Y397971D01*
Y390353D01*
D43*
X406800Y1292220D02*
X406870D01*
X306870Y1211220D02*
X406870D01*
X306870Y1293220D02*
X406870D01*
X413870Y1211220D02*
Y1293220D01*
X406870Y1211220D02*
X413870D01*
X406870D02*
Y1293220D01*
X299870Y1211220D02*
Y1293220D01*
Y1211220D02*
X306870D01*
Y1293220D01*
X406870D02*
X413870D01*
X299870D02*
X306870D01*
D44*
X461010Y379730D02*
X481330D01*
Y359410D02*
Y379730D01*
X461010Y359410D02*
X481330D01*
X461010D02*
Y379730D01*
D45*
X599240Y885190D02*
Y1175190D01*
X472240Y885290D02*
X599240D01*
X471740Y885190D02*
Y1175190D01*
X472240D02*
X599240D01*
M02*
