M48
;Layer_Color=6321
;FILE_FORMAT=4:4
METRIC,LZ
T11F00S00C1.0000
%
G90
G05
T11
G00X0061984Y01079031
M15
G01X0061984Y01085209
G01X00614406Y01079774
G01X00612508Y01078586
G01X0061087Y0107831
G01X0046347Y0107831
G01X0046347Y0107561
G01X00616419Y0107561
G01X0061984Y01079031
M16
G00X00309239Y0104259
M15
G01X00309079Y0104275
G01X0029075Y0104275
G01X0029075Y0104259
G01X00309239Y0104259
M16
G00X00392965Y00952486
M15
G01X0039286Y0095242
G01X00392899Y0095242
G01X00392965Y00952486
M16
G00X00969923Y00244422
M15
G01X00971667Y00245826
G01X0097274Y0024892
G01X0097274Y0131953
G01X00972238Y01321713
G01X00970834Y01323457
G01X0096774Y0132453
G01X0024892Y0132453
G01X00246737Y01324028
G01X00244993Y01322624
G01X0024392Y0131953
G01X0024392Y0024892
G01X00244422Y00246737
G01X00245826Y00244993
G01X0024892Y0024392
G01X0096774Y0024392
G01X00969923Y00244422
M16
M17
M30
