M48
;Layer_Color=6321
;FILE_FORMAT=4:4
METRIC,LZ
;TYPE=PLATED
T1F00S00C0.5000
T2F00S00C0.7112
T3F00S00C0.7620
T4F00S00C0.8000
T5F00S00C0.8890
T6F00S00C1.0000
T7F00S00C1.0160
T8F00S00C1.2000
T9F00S00C1.3000
T10F00S00C1.6000
%
T01
X0034163Y0092583
X0040163
T02
X00372364Y00357632
X00489712Y002794
X00811807Y0074732
X00814324Y0076732
X0076466Y0075311
X00713486Y00763778
X00723646Y0072811
X00739648Y0066548
X00634238Y00565404
X00622808Y0078232
X00503174Y0077597
X00350774Y00858266
X00432054Y00906018
X00739394Y00814578
X00767588Y00809548
T03
X0083185Y0058293
Y0060833
X0085725
Y0058293
X0088265
Y0060833
X0090805
Y0058293
T04
X0030734Y0088519
X0033274
X0035814
T05
X0047117Y0036957
T06
X0028291Y0037298
X0030831
X0033371
X0035911
X0038451
X0040991
X0043531
X0053467Y0036581
Y0034081
Y0031581
Y0029081
Y0039081
X0068467
Y0036581
Y0034081
Y0031581
Y0029081
Y0041581
Y0044081
Y0046581
Y0049081
Y0051581
Y0054081
Y0056581
Y0059081
Y0061581
Y0064081
Y0066581
Y0069081
Y0071581
Y0074081
Y0076581
X0053467
Y0074081
Y0071581
Y0069081
Y0066581
Y0064081
Y0061581
Y0059081
Y0056581
Y0054081
Y0051581
Y0049081
Y0046581
Y0044081
Y0041581
X0047115Y0051426
Y0053966
Y0062366
Y0064906
X0027815
Y0062366
Y0053966
Y0051426
T07
X0075057Y0033147
X0077597
X0080137
X0082677
X0085217
X0087757
X0090297
T08
X0041783Y0069215
X0044323
X0046863
T09
X0030981Y0032131
X0035981
X0040981
X0045981
X0036957Y0097536
X0030957Y0099536
Y0111736
X0042957
X0049904Y0115169
X0057404
Y0099909
Y0094869
Y0089829
X0049904
Y0094869
Y0099909
X0042957Y0099536
X0047832Y0125222
X0052832
X0057832
T10
X0033187Y0125222
X0038187
M30
